<svg width="24" height="24" viewBox="0 0 24 24" fill="none" xmlns="http://www.w3.org/2000/svg">
<path d="M13.0305 1.69132L2.04 0.0218182C1.53 -0.0576818 1.0095 0.0818185 0.6195 0.411819C0.2295 0.752319 0 1.24132 0 1.75132V22.8218C0 23.3723 0.45 23.8223 1.0005 23.8223H4.251V18.5723C4.251 17.6018 5.031 16.8218 6.0015 16.8218H8.502C9.4725 16.8218 10.2525 17.6018 10.2525 18.5723V23.8223H14.502V3.42232C14.5005 2.56132 13.8795 1.83232 13.0305 1.69132ZM5.5005 14.5718H4.0005C3.5865 14.5718 3.2505 14.2358 3.2505 13.8218C3.2505 13.4078 3.5865 13.0718 4.0005 13.0718H5.5005C5.9145 13.0718 6.2505 13.4078 6.2505 13.8218C6.2505 14.2358 5.9145 14.5718 5.5005 14.5718ZM5.5005 11.5718H4.0005C3.5865 11.5718 3.2505 11.2358 3.2505 10.8218C3.2505 10.4078 3.5865 10.0718 4.0005 10.0718H5.5005C5.9145 10.0718 6.2505 10.4078 6.2505 10.8218C6.2505 11.2358 5.9145 11.5718 5.5005 11.5718ZM5.5005 8.57182H4.0005C3.5865 8.57182 3.2505 8.23582 3.2505 7.82182C3.2505 7.40782 3.5865 7.07182 4.0005 7.07182H5.5005C5.9145 7.07182 6.2505 7.40782 6.2505 7.82182C6.2505 8.23582 5.9145 8.57182 5.5005 8.57182ZM5.5005 5.57182H4.0005C3.5865 5.57182 3.2505 5.23582 3.2505 4.82182C3.2505 4.40782 3.5865 4.07182 4.0005 4.07182H5.5005C5.9145 4.07182 6.2505 4.40782 6.2505 4.82182C6.2505 5.23582 5.9145 5.57182 5.5005 5.57182ZM10.5 14.5718H9C8.586 14.5718 8.25 14.2358 8.25 13.8218C8.25 13.4078 8.586 13.0718 9 13.0718H10.5C10.914 13.0718 11.25 13.4078 11.25 13.8218C11.25 14.2358 10.914 14.5718 10.5 14.5718ZM10.5 11.5718H9C8.586 11.5718 8.25 11.2358 8.25 10.8218C8.25 10.4078 8.586 10.0718 9 10.0718H10.5C10.914 10.0718 11.25 10.4078 11.25 10.8218C11.25 11.2358 10.914 11.5718 10.5 11.5718ZM10.5 8.57182H9C8.586 8.57182 8.25 8.23582 8.25 7.82182C8.25 7.40782 8.586 7.07182 9 7.07182H10.5C10.914 7.07182 11.25 7.40782 11.25 7.82182C11.25 8.23582 10.914 8.57182 10.5 8.57182ZM10.5 5.57182H9C8.586 5.57182 8.25 5.23582 8.25 4.82182C8.25 4.40782 8.586 4.07182 9 4.07182H10.5C10.914 4.07182 11.25 4.40782 11.25 4.82182C11.25 5.23582 10.914 5.57182 10.5 5.57182Z" fill="#232536"/>
<path d="M22.6205 10.6643L15.5 9.17334V23.8223H22.25C23.2145 23.8223 24.0005 23.0378 24.0005 22.0718V12.3743C24.0005 11.5478 23.4365 10.8443 22.6205 10.6643ZM20.2505 20.8223H18.7505C18.3365 20.8223 18.0005 20.4863 18.0005 20.0723C18.0005 19.6583 18.3365 19.3223 18.7505 19.3223H20.2505C20.6645 19.3223 21.0005 19.6583 21.0005 20.0723C21.0005 20.4863 20.6645 20.8223 20.2505 20.8223ZM20.2505 17.8223H18.7505C18.3365 17.8223 18.0005 17.4863 18.0005 17.0723C18.0005 16.6583 18.3365 16.3223 18.7505 16.3223H20.2505C20.6645 16.3223 21.0005 16.6583 21.0005 17.0723C21.0005 17.4863 20.6645 17.8223 20.2505 17.8223ZM20.2505 14.8223H18.7505C18.3365 14.8223 18.0005 14.4863 18.0005 14.0723C18.0005 13.6583 18.3365 13.3223 18.7505 13.3223H20.2505C20.6645 13.3223 21.0005 13.6583 21.0005 14.0723C21.0005 14.4863 20.6645 14.8223 20.2505 14.8223Z" fill="#FFD050"/>
</svg>
